<?xml version="1.0" standalone="no"?>
<!DOCTYPE svg PUBLIC "-//W3C//DTD SVG 20010904//EN"
 "http://www.w3.org/TR/2001/REC-SVG-20010904/DTD/svg10.dtd">
<svg version="1.0" xmlns="http://www.w3.org/2000/svg"
 width="1280.000000pt" height="640.000000pt" viewBox="0 0 1280.000000 640.000000"
 preserveAspectRatio="xMidYMid meet">
<metadata>
Created by potrace 1.15, written by Peter Selinger 2001-2017
</metadata>
<g transform="translate(0.000000,640.000000) scale(0.100000,-0.100000)"
fill="#000000" stroke="none">
<path d="M10964 4972 c-115 -91 -990 -1053 -1579 -1736 -103 -119 -115 -130
-190 -166 -44 -22 -143 -58 -219 -81 l-140 -42 -280 12 c-1051 43 -1832 56
-3376 56 -1537 0 -2033 -11 -2570 -56 -335 -28 -535 -80 -810 -211 -395 -188
-730 -485 -730 -646 0 -32 7 -46 32 -71 100 -98 344 -209 520 -237 37 -6 38
-7 38 -49 l0 -43 48 -11 c26 -5 101 -13 165 -17 l117 -7 0 -32 c0 -25 -9 -42
-36 -69 -32 -32 -36 -41 -31 -73 12 -71 78 -109 136 -78 66 34 76 112 20 159
-27 23 -29 29 -29 100 l0 76 188 0 c417 1 1301 -22 1430 -36 72 -8 195 -17
272 -21 l140 -6 0 -79 0 -79 33 -14 c53 -22 181 -45 290 -51 102 -6 239 4 437
32 161 22 149 15 152 82 3 53 5 57 28 60 76 8 89 13 92 35 3 22 5 22 138 19
74 -2 162 -8 195 -14 33 -5 120 -10 193 -10 l132 -1 0 -55 0 -55 -21 19 c-13
11 -35 19 -60 19 -89 0 -128 -106 -61 -166 50 -44 119 -34 148 23 19 36 49 36
68 0 28 -55 96 -67 144 -27 56 47 47 126 -18 160 -36 19 -48 19 -82 1 l-28
-15 0 53 0 53 38 7 c20 3 157 6 305 6 l267 0 0 -41 c0 -35 -6 -48 -39 -80 -46
-47 -64 -48 -97 -10 -48 57 -131 45 -159 -23 -35 -84 52 -164 133 -122 17 9
33 25 37 36 10 30 45 24 76 -12 23 -29 33 -33 74 -33 41 0 51 4 74 33 35 41
60 41 104 -3 48 -48 86 -48 134 0 31 31 35 40 30 72 -15 87 -111 119 -168 55
-35 -39 -70 -42 -93 -8 -8 14 -25 27 -36 31 -16 5 -20 15 -20 54 l0 48 348 7
c808 16 1245 45 1602 107 890 155 2863 621 2976 703 16 12 16 15 -5 45 -12 17
-27 31 -32 31 -5 0 -9 4 -9 9 0 4 72 35 160 67 88 32 160 62 160 65 0 11 -219
20 -456 19 -202 -1 -245 2 -364 23 -74 14 -156 28 -182 32 -27 3 -48 9 -48 12
0 3 200 454 444 1002 526 1180 516 1157 516 1169 0 5 -125 12 -294 15 -162 4
-301 9 -309 12 -8 4 -36 -11 -63 -33z m-9237 -3198 c-3 -3 -12 -4 -19 -1 -8 3
-5 6 6 6 11 1 17 -2 13 -5z m101 -11 c-10 -2 -28 -2 -40 0 -13 2 -5 4 17 4 22
1 32 -1 23 -4z"/>
</g>
</svg>
